<svg width="50" height="50" fill="none" xmlns="http://www.w3.org/2000/svg"><circle cx="25" cy="25" r="25" fill="url(#paint0_linear)"/><path d="M33.042 28.222l.174 2.323a1.55 1.55 0 01-.944 1.553c-.2.084-.415.126-.632.123a15.418 15.418 0 01-6.874-1.878 15.158 15.158 0 01-5.003-4.299 15.35 15.35 0 01-2.884-6.536 1.551 1.551 0 011.418-1.803l2.328-.174a1.558 1.558 0 011.651 1.216c.154.736.391 1.452.706 2.135a1.551 1.551 0 01-.227 1.66l-.912 1.057a12.438 12.438 0 005.003 4.3l.912-1.058a1.557 1.557 0 011.611-.47c.724.209 1.47.336 2.221.379a1.557 1.557 0 011.452 1.472z" fill="#fff"/><path d="M40 24.444a14.241 14.241 0 01-1.53 6.458 14.445 14.445 0 01-12.914 7.987 14.239 14.239 0 01-6.458-1.53l-7.987 1.53 1.53-7.987a14.239 14.239 0 01-1.53-6.458 14.445 14.445 0 017.987-12.914A14.24 14.24 0 0125.556 10h.85A14.411 14.411 0 0140 23.595v.85z" stroke="#fff" stroke-width="2" stroke-linecap="round" stroke-linejoin="round"/><defs><linearGradient id="paint0_linear" x1="43.269" y1="7.372" x2="5.769" y2="40.705" gradientUnits="userSpaceOnUse"><stop stop-color="#A00000"/><stop offset="1" stop-color="#E60F00"/></linearGradient></defs></svg>