<svg width="78" height="78" fill="none" xmlns="http://www.w3.org/2000/svg"><circle cx="39" cy="39" r="39" fill="url(#paint0_linear)"/><path d="M42.537 28.263a9.102 9.102 0 014.69 2.491 9.073 9.073 0 012.496 4.681l-7.186-7.172zm0-7.263a16.39 16.39 0 019.763 4.68 16.33 16.33 0 014.7 9.737L42.537 21zm12.644 28.907v5.447a3.626 3.626 0 01-1.179 2.69 3.64 3.64 0 01-2.787.941 36.046 36.046 0 01-15.7-5.574A35.44 35.44 0 0124.6 42.516a35.888 35.888 0 01-5.585-15.742 3.625 3.625 0 012.153-3.649 3.667 3.667 0 011.467-.31h5.458a3.643 3.643 0 012.408.879 3.63 3.63 0 011.23 2.245c.23 1.743.658 3.455 1.273 5.102a3.625 3.625 0 01-.818 3.831l-2.31 2.306A29.08 29.08 0 0040.79 48.073l2.31-2.306a3.641 3.641 0 013.839-.817 23.398 23.398 0 005.112 1.27 3.64 3.64 0 012.267 1.249c.577.68.884 1.547.862 2.438z" stroke="#fff" stroke-width="1.5" stroke-linecap="round" stroke-linejoin="round"/><defs><linearGradient id="paint0_linear" x1="67.5" y1="11.5" x2="9" y2="63.5" gradientUnits="userSpaceOnUse"><stop stop-color="#A00000"/><stop offset="1" stop-color="#E60F00"/></linearGradient></defs></svg>