<svg width="95" height="63" fill="none" xmlns="http://www.w3.org/2000/svg"><path fill-rule="evenodd" clip-rule="evenodd" d="M78.613 55.457c-.577 4.025-4.099 7.121-8.358 7.121s-7.78-3.096-8.358-7.121H32.801c-.034.003-.07.005-.104.005h-4.35c-.579 4.023-4.1 7.116-8.356 7.116-4.257 0-7.778-3.093-8.358-7.116H3.086c-.581 0-1.062-.287-1.408-.601-.353-.322-.65-.746-.889-1.21C.311 52.72 0 51.487 0 50.163l.02-14.811a1 1 0 01.179-.57l8.67-12.452c.019-.027.04-.053.06-.079.87-1.015 2.399-1.727 4.1-2.26 1.748-.548 3.865-.96 6.096-1.27a87.438 87.438 0 016.677-.637V7.064c0-1.822.436-3.52 1.192-4.797C27.737 1.012 28.906 0 30.394 0h59.865c1.487 0 2.656 1.012 3.4 2.267.756 1.276 1.191 2.975 1.191 4.797v40.597a.997.997 0 010 .213v.519c0 1.822-.435 3.52-1.191 4.797-.744 1.255-1.913 2.267-3.4 2.267H78.613zm-67.022-1.995h-8.46a.601.601 0 01-.107-.08c-.129-.118-.293-.328-.456-.644-.323-.63-.57-1.547-.568-2.573l.019-14.498 8.46-12.149c.492-.549 1.536-1.114 3.148-1.619 1.6-.5 3.596-.895 5.773-1.197a85.024 85.024 0 016.402-.614v28.194a8.495 8.495 0 00-5.811-2.278c-4.377 0-7.976 3.27-8.4 7.458zm50.266-.005H34.243c.4-.803.618-1.03.708-1.125l.015-.016.01-.01c.046-.049.157-.166.247-.314.115-.193.17-.386.196-.568.038-.258.034-.625.028-1.103l-.002-.113-.017-1.444 28.537.002a8.183 8.183 0 00-2.108 4.69zm14.69-4.69a8.184 8.184 0 012.107 4.69h11.605c.496 0 1.122-.346 1.679-1.286.498-.842.85-2.034.905-3.404H76.546zm-9.83-2.001a8.542 8.542 0 013.538-.762c1.264 0 2.464.273 3.54.762l19.055.002V7.063c0-1.527-.369-2.86-.912-3.778C91.38 2.346 90.755 2 90.258 2H30.395c-.496 0-1.122.346-1.68 1.286-.543.918-.912 2.251-.912 3.778v10.919a109.96 109.96 0 014.576-.098c.595 0 1.067.295 1.397.637.326.337.572.771.757 1.225.372.912.58 2.104.595 3.368l.278 23.649 31.311.002zm-33.271 3.466l-.018-1.468H27.81c.054 1.37.405 2.564.905 3.407.557.94 1.183 1.286 1.679 1.286h1.644c.69-1.575 1.115-2.122 1.41-2.445a22.53 22.53 0 00-.002-.78zm-.041-3.468h-5.603v-26.78a109.26 109.26 0 014.507-.1.55.55 0 01.029.028c.088.092.214.277.342.59.253.621.434 1.551.447 2.637l.278 23.625zM22.127 24.43c.37 0 .36 1.528.354 2.575l-.002.361v8.5c0 1.01-.334 1.822-.75 1.822H9.013c-.416 0-3.022-.76-2.552-1.653l1.802-3.418 3.723-5.347c1.157-1.353 6.954-2.84 10.14-2.84z" fill="#fff"/></svg>