<svg viewBox="0 0 62 66" fill="none" xmlns="http://www.w3.org/2000/svg"><path fill-rule="evenodd" clip-rule="evenodd" d="M23.423 65.896c-3.719.26-8.131.077-12.167-1.036-3.998-1.102-7.734-3.15-9.98-6.702-1.522-1.638-1.517-3.972-.84-6.185.699-2.284 2.181-4.72 4.022-6.857 1.843-2.14 4.103-4.047 6.421-5.227 2.298-1.17 4.817-1.704 7.043-.785.059.025.115.055.169.09.856.565 1.588 1.601 2.224 2.598.277.433.539.863.799 1.291a44.03 44.03 0 001.221 1.933c.708 1.04 1.4 1.858 2.114 2.327.646.425 1.284.555 2.049.276 6.661-3.352 13.121-9.255 15.273-16.296a.925.925 0 01.007-.023c.7-2.104.777-3.442.571-4.334-.193-.84-.666-1.407-1.405-1.919-.587-.406-1.26-.73-2.05-1.108a65.569 65.569 0 01-.913-.445c-1.14-.57-2.395-1.278-3.483-2.385-2.037-1.955-2.276-4.759-1.61-7.474.67-2.729 2.288-5.573 4.297-7.932 2.003-2.353 4.481-4.326 6.952-5.208 1.244-.444 2.53-.626 3.767-.394 1.203.227 2.298.836 3.204 1.862.768.487 1.728 1.389 2.726 2.542 1.085 1.254 2.276 2.876 3.396 4.76 2.234 3.759 4.229 8.64 4.475 13.8l-1 .047.994.115C59.293 44.044 42.64 62.23 23.541 65.88a.98.98 0 01-.118.016zm-.2-1.991c18.144-3.498 34.137-20.883 36.48-40.826-.242-4.7-2.075-9.229-4.193-12.792-1.061-1.787-2.184-3.312-3.189-4.473-1.025-1.185-1.871-1.925-2.37-2.214a1 1 0 01-.263-.222c-.643-.764-1.373-1.164-2.154-1.311-.799-.15-1.718-.048-2.724.312-2.03.724-4.236 2.428-6.102 4.62-1.862 2.187-3.3 4.759-3.878 7.113-.58 2.362-.26 4.302 1.06 5.562a.848.848 0 01.024.023c.856.873 1.875 1.466 2.96 2.008.246.122.503.246.765.371.834.4 1.715.822 2.443 1.327 1.019.705 1.88 1.653 2.216 3.114.324 1.405.13 3.15-.618 5.402-2.378 7.764-9.38 14.026-16.333 17.512-.03.014-.06.028-.091.04-1.474.563-2.795.274-3.906-.457-1.055-.694-1.928-1.786-2.668-2.873-.452-.664-.906-1.41-1.329-2.103a67.412 67.412 0 00-.723-1.17c-.623-.974-1.13-1.631-1.566-1.953-1.438-.55-3.266-.268-5.277.756-2.035 1.036-4.098 2.758-5.814 4.75-1.718 1.995-3.03 4.192-3.624 6.137-.605 1.977-.404 3.423.437 4.285.05.052.096.11.134.171 1.876 3.022 5.108 4.881 8.867 5.918 3.734 1.03 7.88 1.215 11.437.973zm6.65-7.39a1 1 0 001.03 1.715c10.117-6.08 15.401-11.818 20.15-18.504a1 1 0 10-1.63-1.158c-4.613 6.494-9.701 12.03-19.55 17.948z" fill="#fff"/></svg>