<svg viewBox="0 0 47 46" fill="none" xmlns="http://www.w3.org/2000/svg"><path fill-rule="evenodd" clip-rule="evenodd" d="M30.938 6.714L23.48 0l-7.456 6.714-3.728 3.339v24.186l3.728-3.338v-9.998l7.456-6.473 7.457 6.473v5.175l-7.457-6.714v5.175l11.185 9.719V10.09l-3.728-3.376zm0 9.256L23.48 9.255l-7.456 6.715v-4.322l7.456-6.473 7.457 6.473v4.322zm-27.21 1.78L0 21.09v24.168l3.728-3.339v-9.867l3.71-3.19v9.811l3.728-3.338V11.129l-7.438 6.64v-.019zm3.71 1.744v4.303l-3.71 3.32v-4.415l3.71-3.208zM47 21.089v4.804l-7.456-6.38v4.302L47 30.455v14.931L35.816 35.371V11.129L47 21.089zm-3.728 16.007V32.05l-3.728-3.21v4.786l3.728 3.469z" fill="url(#paint0_linear)"/><defs><linearGradient id="paint0_linear" x1="-.604" y1="28.532" x2="47.234" y2="28.21" gradientUnits="userSpaceOnUse"><stop stop-color="#E60F00"/><stop offset="1" stop-color="#A00000"/></linearGradient></defs></svg>