<svg viewBox="0 0 142 16" fill="none" xmlns="http://www.w3.org/2000/svg"><path fill-rule="evenodd" clip-rule="evenodd" d="M136.156 15.16c3.303 0 5.6-2.078 5.6-5.119 0-2.844-2.1-5.01-4.878-4.988-1.334 0-2.603.503-3.456 1.422.175-2.21 1.443-3.5 3.456-3.5 1.072 0 2.253.24 3.041.81l1.837-1.991C140.05.219 138.3 0 136.681 0c-4.047 0-6.453 2.931-6.453 7.897 0 4.572 2.275 7.263 5.928 7.263zm-.022-7.438c1.4 0 2.341.94 2.341 2.32 0 1.355-.941 2.274-2.341 2.296-1.378 0-2.297-.94-2.297-2.297 0-1.4.941-2.319 2.297-2.319zm-64.621 3.063l-2.604 2.34c1.663 1.27 3.872 1.97 6.17 1.991 3.521 0 5.862-1.772 5.862-4.397 0-2.34-1.597-3.784-5.031-4.725-2.188-.634-2.8-1.072-2.8-1.794s.743-1.16 1.947-1.16c1.356 0 2.559.263 3.565 1.05l2.538-2.034C79.235.328 77.047.022 74.925.022c-3.412 0-5.403 1.75-5.403 4.222 0 2.384 1.531 3.763 4.769 4.616 2.187.59 2.975 1.072 2.975 1.86 0 .83-.853 1.29-2.319 1.29-1.597 0-1.99-.219-3.434-1.225zM41.827.197v3.325h-4.288v11.397h-3.61V3.522h-4.265V.197h12.163zM10.588 12.535l.875 2.384h3.719L9.56.22H5.688L0 14.919h3.785l.853-2.384h5.95zM5.425 9.91l2.232-6.038L9.844 9.91H5.425zm17.107-.11l2.778 5.12v.021h3.916l-3.26-5.666c1.794-.787 2.8-1.968 2.8-4.069 0-2.997-2.209-4.987-5.621-4.987h-6.17v14.7h3.61V9.8h1.947zM20.52 3.172h2.275c1.53 0 2.384.81 2.384 2.144s-.853 2.122-2.384 2.122l-2.276-.372V3.172zm26.885.066h6.126V.218h-9.735V14.92h3.61V9.582h5.534V6.65h-5.535V3.238zm17.282 11.681l-.875-2.384h-5.95l-.853 2.384h-3.785L58.912.22h3.872l5.622 14.7h-3.719zM60.86 3.872L58.627 9.91h4.42l-2.188-6.038zm31.96 11.047l-.874-2.384h-5.95l-.854 2.384h-3.784L87.045.22h3.872l5.622 14.7h-3.72zM88.992 3.872l-2.23 6.038h4.418l-2.188-6.038zm22.817 3.675c0-4.44-2.997-7.35-7.591-7.35h-5.885v14.7h5.885c4.616 0 7.591-2.909 7.591-7.35zm-3.653.022c0 2.581-1.575 4.069-4.332 4.069v.022h-1.881V3.5h1.881c2.757 0 4.332 1.488 4.332 4.07zm16.297-1.51c2.363.263 4.004 1.991 4.004 4.376 0 2.844-2.232 4.725-5.644 4.725-2.057 0-3.982-.787-5.272-2.166l1.793-2.406a4.582 4.582 0 003.326 1.466c1.4 0 2.362-.788 2.362-1.904 0-1.575-1.75-2.056-3.784-1.684l-.832-1.838 3.085-3.5h-5.141V.197h9.385v1.86l-3.282 4.003z" fill="#fff"/></svg>