<svg width="57" height="50" fill="none" xmlns="http://www.w3.org/2000/svg"><path d="M57 0H0v50L57 0z" fill="url(#paint0_linear)"/><path d="M20.965 25H9.27v-2.32l5.52-5.883c.757-.828 1.316-1.55 1.675-2.168.367-.617.55-1.203.55-1.758 0-.758-.19-1.351-.574-1.781-.382-.438-.93-.656-1.64-.656-.766 0-1.371.265-1.817.796-.437.524-.656 1.215-.656 2.075H8.93c0-1.04.246-1.989.738-2.848a5.245 5.245 0 012.11-2.016c.906-.492 1.933-.738 3.081-.738 1.758 0 3.121.422 4.09 1.266.977.844 1.465 2.035 1.465 3.574 0 .844-.219 1.703-.656 2.578-.438.875-1.188 1.895-2.25 3.059l-3.88 4.09h7.337V25z" fill="#fff"/><defs><linearGradient id="paint0_linear" x1="0" y1="14.5" x2="44.5" y2="13.5" gradientUnits="userSpaceOnUse"><stop stop-color="#E60F00"/><stop offset="1" stop-color="#A00000"/></linearGradient></defs></svg>