<svg width="57" height="50" fill="none" xmlns="http://www.w3.org/2000/svg"><path d="M.23 0H57v50L.23 0z" fill="url(#paint0_linear)"/><path d="M39.776 14.969h1.804c.86 0 1.496-.215 1.91-.645.414-.43.621-1 .621-1.71 0-.688-.206-1.223-.62-1.606-.407-.383-.97-.574-1.688-.574-.648 0-1.191.18-1.629.539-.438.351-.656.812-.656 1.382H36.13c0-.89.238-1.687.715-2.39.484-.711 1.156-1.266 2.016-1.664.867-.399 1.82-.598 2.859-.598 1.805 0 3.219.434 4.242 1.3 1.023.86 1.535 2.048 1.535 3.563 0 .782-.238 1.5-.715 2.157a4.645 4.645 0 01-1.875 1.511c.961.344 1.676.86 2.145 1.547.477.688.715 1.5.715 2.438 0 1.515-.555 2.73-1.664 3.644-1.102.914-2.563 1.371-4.383 1.371-1.703 0-3.098-.449-4.184-1.347-1.078-.899-1.617-2.086-1.617-3.563h3.387c0 .64.238 1.164.715 1.57.484.407 1.078.61 1.78.61.806 0 1.434-.211 1.888-.633.46-.43.691-.996.691-1.7 0-1.702-.938-2.554-2.813-2.554h-1.792V14.97z" fill="#fff"/><defs><linearGradient id="paint0_linear" x1=".231" y1="14.5" x2="44.551" y2="13.508" gradientUnits="userSpaceOnUse"><stop stop-color="#E60F00"/><stop offset="1" stop-color="#A00000"/></linearGradient></defs></svg>