<svg width="57" height="50" fill="none" xmlns="http://www.w3.org/2000/svg"><path d="M57 0H0v50L57 0z" fill="url(#paint0_linear)"/><path d="M12.715 14.969h1.805c.859 0 1.496-.215 1.91-.645.414-.43.62-1 .62-1.71 0-.688-.206-1.223-.62-1.606-.407-.383-.969-.574-1.688-.574-.648 0-1.191.18-1.629.539a1.688 1.688 0 00-.656 1.382H9.07c0-.89.239-1.687.715-2.39.485-.711 1.156-1.266 2.016-1.664.867-.399 1.82-.598 2.86-.598 1.804 0 3.218.434 4.241 1.3 1.024.86 1.535 2.048 1.535 3.563 0 .782-.238 1.5-.714 2.157a4.645 4.645 0 01-1.875 1.511c.96.344 1.675.86 2.144 1.547.477.688.715 1.5.715 2.438 0 1.515-.555 2.73-1.664 3.644-1.102.914-2.563 1.371-4.383 1.371-1.703 0-3.098-.449-4.183-1.347-1.079-.899-1.618-2.086-1.618-3.563h3.387c0 .64.238 1.164.715 1.57.484.407 1.078.61 1.781.61.805 0 1.434-.211 1.887-.633.46-.43.691-.996.691-1.7 0-1.702-.937-2.554-2.812-2.554h-1.793V14.97z" fill="#fff"/><defs><linearGradient id="paint0_linear" x1="0" y1="14.5" x2="44.5" y2="13.5" gradientUnits="userSpaceOnUse"><stop stop-color="#E60F00"/><stop offset="1" stop-color="#A00000"/></linearGradient></defs></svg>