<svg viewBox="0 0 81 66" fill="none" xmlns="http://www.w3.org/2000/svg"><path fill-rule="evenodd" clip-rule="evenodd" d="M3.5 8.33c0-1.526.37-2.835.889-3.711.539-.91 1.069-1.119 1.36-1.119h63.497c.291 0 .821.209 1.36 1.119.52.876.889 2.185.889 3.712v16.961h-9.274c-.852 0-1.496.475-1.872.988a3.036 3.036 0 00-.563 1.79v9.986c0 .638.187 1.276.563 1.79.376.514 1.02.989 1.872.989h9.274v16.96c0 1.527-.37 2.836-.889 3.713-.539.91-1.069 1.118-1.36 1.118H5.749c-.291 0-.821-.209-1.36-1.118-.52-.877-.889-2.186-.889-3.713V8.331zm70.995 32.505v16.96c0 1.97-.47 3.827-1.308 5.241-.818 1.382-2.162 2.59-3.941 2.59H5.749c-1.779 0-3.123-1.208-3.941-2.59C.97 61.622.5 59.766.5 57.796V8.33c0-1.97.47-3.826 1.308-5.241C2.626 1.708 3.97.5 5.749.5h63.497c1.779 0 3.123 1.208 3.942 2.59.837 1.415 1.307 3.271 1.307 5.24v16.962h3.57c.852 0 1.496.475 1.871.988.377.515.564 1.152.564 1.79v9.986c0 .638-.187 1.276-.564 1.79-.375.514-1.02.989-1.872.989h-3.569zm-3-3h-8.71v-9.543h8.71v9.543zm3-9.543v9.543H77.5v-9.543h-3.005z" fill="#fff"/></svg>