<svg width="50" height="50" viewBox="0 0 50 50" fill="none" xmlns="http://www.w3.org/2000/svg">
<circle cx="25" cy="25" r="25" fill="url(#paint0_linear)"/>
<path d="M33.0425 28.222L33.2161 30.5453C33.2331 30.7609 33.2048 30.9777 33.133 31.1818C33.0612 31.3859 32.9474 31.5727 32.7991 31.7304C32.6507 31.8881 32.471 32.0132 32.2715 32.0976C32.0719 32.182 31.8569 32.2239 31.6402 32.2205C29.233 32.14 26.8785 31.497 24.7659 30.3433C22.8022 29.2944 21.0941 27.8267 19.7629 26.0445C18.3005 24.1221 17.3126 21.8829 16.879 19.5081C16.8436 19.2954 16.853 19.0777 16.9065 18.8687C16.9601 18.6598 17.0566 18.4643 17.19 18.2946C17.3234 18.125 17.4907 17.9849 17.6813 17.8833C17.8719 17.7817 18.0816 17.7208 18.2971 17.7045L20.625 17.5306C21.0013 17.4987 21.3763 17.6045 21.6802 17.8283C21.984 18.052 22.196 18.3784 22.2765 18.7466C22.4303 19.4828 22.667 20.1992 22.9822 20.8822C23.1073 21.1516 23.1524 21.4512 23.1122 21.7454C23.0719 22.0397 22.948 22.3162 22.7551 22.5424L21.8431 23.5995C23.0926 25.4559 24.8211 26.941 26.8461 27.8983L27.7581 26.8412C27.9536 26.6172 28.2092 26.4538 28.4948 26.3704C28.7803 26.2869 29.0839 26.2869 29.3694 26.3704C30.093 26.5799 30.8381 26.7072 31.5904 26.7496C31.9713 26.7745 32.3297 26.9382 32.5975 27.2097C32.8652 27.4812 33.0236 27.8414 33.0425 28.222Z" fill="white"/>
<path d="M40 24.4444C40.0058 26.6873 39.4818 28.8999 38.4706 30.9019C37.2716 33.301 35.4283 35.3188 33.1473 36.7295C30.8663 38.1401 28.2375 38.8878 25.5556 38.8888C23.3127 38.8947 21.1001 38.3707 19.0981 37.3594L11.1112 38.8888L12.6406 30.9019C11.6293 28.8999 11.1053 26.6873 11.1112 24.4444C11.1122 21.7625 11.8599 19.1338 13.2705 16.8527C14.6812 14.5717 16.699 12.7285 19.0981 11.5295C21.1001 10.5182 23.3127 9.9942 25.5556 10H26.4052C29.9472 10.1955 33.2927 11.6905 35.8011 14.1989C38.3095 16.7073 39.8045 20.0528 40 23.5948V24.4444Z" stroke="white" stroke-width="2" stroke-linecap="round" stroke-linejoin="round"/>
<defs>
<linearGradient id="paint0_linear" x1="43.2692" y1="7.37179" x2="5.76923" y2="40.7051" gradientUnits="userSpaceOnUse">
<stop stop-color="#A00000"/>
<stop offset="1" stop-color="#E60F00"/>
</linearGradient>
</defs>
</svg>
