<svg width="78" height="78" viewBox="0 0 78 78" fill="none" xmlns="http://www.w3.org/2000/svg">
<circle cx="39" cy="39" r="39" fill="url(#paint0_linear)"/>
<path d="M42.5372 28.263C44.3141 28.609 45.9471 29.4763 47.2273 30.754C48.5074 32.0317 49.3765 33.6616 49.7231 35.4351L42.5372 28.263ZM42.5372 21C46.2289 21.4093 49.6715 23.0594 52.2996 25.6792C54.9277 28.299 56.5852 31.7329 57 35.417L42.5372 21ZM55.1808 49.9066V55.3538C55.1828 55.8595 55.0791 56.36 54.8761 56.8233C54.6731 57.2867 54.3754 57.7026 54.0021 58.0445C53.6287 58.3863 53.188 58.6466 52.708 58.8086C52.2281 58.9706 51.7195 59.0308 51.2149 58.9853C45.6169 58.3782 40.2396 56.4689 35.5151 53.4109C31.1195 50.6232 27.3929 46.9036 24.5998 42.5165C21.5252 37.7796 19.6119 32.3865 19.0148 26.774C18.9693 26.2719 19.0291 25.7659 19.1903 25.2881C19.3516 24.8103 19.6107 24.3713 19.9512 23.9989C20.2918 23.6266 20.7063 23.3291 21.1683 23.1254C21.6304 22.9217 22.1299 22.8162 22.635 22.8157H28.0927C28.9755 22.8071 29.8314 23.1191 30.5009 23.6937C31.1703 24.2683 31.6075 25.0663 31.7311 25.9388C31.9614 27.682 32.3886 29.3937 33.0045 31.041C33.2493 31.6909 33.3023 32.3972 33.1572 33.0763C33.0121 33.7553 32.675 34.3786 32.1859 34.8722L29.8755 37.1782C32.4652 41.724 36.2363 45.4879 40.7908 48.0727L43.1012 45.7667C43.5958 45.2785 44.2203 44.9421 44.9006 44.7972C45.5809 44.6524 46.2886 44.7053 46.9397 44.9496C48.5903 45.5643 50.3052 45.9907 52.0517 46.2206C52.9354 46.345 53.7425 46.7893 54.3194 47.4689C54.8964 48.1485 55.2029 49.0161 55.1808 49.9066Z" stroke="white" stroke-width="1.5" stroke-linecap="round" stroke-linejoin="round"/>
<defs>
<linearGradient id="paint0_linear" x1="67.5" y1="11.5" x2="9" y2="63.5" gradientUnits="userSpaceOnUse">
<stop stop-color="#A00000"/>
<stop offset="1" stop-color="#E60F00"/>
</linearGradient>
</defs>
</svg>
