<svg viewBox="0 0 95 63" fill="none" xmlns="http://www.w3.org/2000/svg">
<path fill-rule="evenodd" clip-rule="evenodd" d="M78.6133 55.4569C78.0362 59.4818 74.5141 62.5784 70.2552 62.5784C65.9964 62.5784 62.4742 59.4818 61.8972 55.4569H32.801C32.7667 55.4604 32.7319 55.4623 32.6969 55.4623H28.3478C27.7684 59.4846 24.2475 62.5784 19.9906 62.5784C15.7336 62.5784 12.2127 59.4846 11.6333 55.4623H3.0863C2.50477 55.4623 2.02351 55.1748 1.67845 54.861C1.32486 54.5394 1.02747 54.1153 0.789153 53.6511C0.31109 52.7199 -0.00170535 51.4869 2.23517e-05 50.1626L0.0193132 35.3515C0.0195788 35.1476 0.0821604 34.9487 0.19867 34.7814L8.86891 22.3301C8.88788 22.3029 8.9082 22.2766 8.92979 22.2514C9.7988 21.2359 11.3279 20.5237 13.0296 19.9907C14.7772 19.4434 16.8938 19.0304 19.1252 18.7213C21.2865 18.422 23.5835 18.2164 25.8025 18.084V7.06404C25.8025 5.24168 26.2379 3.54319 26.994 2.26653C27.737 1.01185 28.9064 -1.52588e-05 30.3939 -1.52588e-05H90.2586C91.7461 -1.52588e-05 92.9155 1.01185 93.6585 2.26653C94.4146 3.54319 94.85 5.24168 94.85 7.06404V47.6606C94.8538 47.6958 94.8557 47.7315 94.8557 47.7676C94.8557 47.8037 94.8538 47.8394 94.85 47.8745V48.3928C94.85 50.2152 94.4146 51.9137 93.6585 53.1903C92.9155 54.445 91.7461 55.4569 90.2586 55.4569H78.6133ZM11.5914 53.4623H3.13054C3.11186 53.4519 3.07629 53.4288 3.02403 53.3813C2.89515 53.2641 2.73093 53.0543 2.56838 52.7376C2.2447 52.1072 1.99868 51.191 2.00002 50.1652L2.0189 35.6673L10.4788 23.5181C10.9706 22.9691 12.0146 22.4045 13.6274 21.8993C15.2273 21.3982 17.2232 21.0038 19.3996 20.7024C21.465 20.4163 23.6662 20.2175 25.8025 20.0876V48.2818C24.289 46.8704 22.2428 46.0044 19.9906 46.0044C15.6138 46.0044 12.0152 49.2748 11.5914 53.4623ZM61.8567 53.4569H34.2428C34.6432 52.6544 34.8608 52.4266 34.9513 52.3318L34.9663 52.316L34.9764 52.3054C35.022 52.2574 35.1334 52.1399 35.2226 51.9915C35.3384 51.7987 35.3922 51.6056 35.419 51.4238C35.457 51.1662 35.4525 50.799 35.4467 50.3206V50.3205V50.3205V50.3205V50.3204V50.3202L35.4453 50.2084L35.4284 48.7637L63.9648 48.7656C62.805 50.0373 62.0394 51.6628 61.8567 53.4569ZM76.5464 48.7664C77.7058 50.038 78.4711 51.6632 78.6538 53.4569H90.2586C90.7546 53.4569 91.3809 53.1112 91.9377 52.1712C92.4365 51.329 92.7878 50.1373 92.8426 48.7675L76.5464 48.7664ZM66.7163 46.7657C67.7926 46.2771 68.9915 46.0044 70.2552 46.0044C71.5194 46.0044 72.7186 46.2773 73.7952 46.7662L92.85 46.7675V7.06404C92.85 5.53732 92.4814 4.20378 91.9377 3.28568C91.3809 2.3456 90.7546 1.99998 90.2586 1.99998H30.3939C29.8979 1.99998 29.2716 2.3456 28.7148 3.28568C28.1711 4.20378 27.8025 5.53732 27.8025 7.06404V17.9828C29.4425 17.9143 30.9993 17.8847 32.3784 17.8847C32.9727 17.8847 33.4446 18.1801 33.7751 18.5217C34.101 18.8585 34.3466 19.2933 34.5316 19.747C34.9035 20.6592 35.112 21.8506 35.1269 23.115L35.4048 46.7637L66.7163 46.7657ZM33.4455 50.2319L33.4282 48.7635L27.8098 48.7631C27.8639 50.1347 28.2155 51.3281 28.7148 52.1712C29.2716 53.1112 29.8979 53.4569 30.3939 53.4569H32.0375C32.7281 51.8819 33.1526 51.3354 33.4483 51.0118C33.4516 50.8885 33.4506 50.6644 33.4455 50.2319ZM33.4047 46.7635L27.8025 46.7631V19.9845C29.4131 19.9161 30.9466 19.8857 32.3091 19.8847C32.3169 19.8916 32.3264 19.9007 32.3378 19.9124C32.4262 20.0038 32.5519 20.1889 32.6796 20.502C32.9329 21.1233 33.1142 22.053 33.127 23.1385L33.4047 46.7635ZM22.1268 24.4301C22.4972 24.4301 22.4876 25.9579 22.4811 27.0052C22.4803 27.1342 22.4795 27.2558 22.4795 27.3664V35.8665C22.4795 36.8757 22.1447 37.6882 21.7287 37.6882H9.01341C8.59745 37.6882 5.99051 36.9282 6.46098 36.0354L8.26258 32.6165L11.9857 27.2697C13.1433 25.917 18.9405 24.4301 22.1268 24.4301Z" fill="white"/>
</svg>
