<svg  viewBox="0 0 62 66" fill="none" xmlns="http://www.w3.org/2000/svg">
<path fill-rule="evenodd" clip-rule="evenodd" d="M23.4226 65.8958C19.704 66.1551 15.292 65.9731 11.2558 64.8601C7.25798 63.7577 3.52161 61.7096 1.27632 58.1579C-0.246308 56.5199 -0.240757 54.186 0.436373 51.9727C1.13494 49.6893 2.61726 47.2525 4.45765 45.1156C6.30072 42.9757 8.56113 41.0688 10.8793 39.8885C13.1766 38.7189 15.6956 38.1853 17.9216 39.1042C17.9807 39.1286 18.0373 39.1586 18.0906 39.1938C18.9473 39.7589 19.6789 40.7951 20.3154 41.7916C20.5922 42.2249 20.8538 42.6552 21.114 43.0833C21.5084 43.7321 21.8995 44.3754 22.3352 45.0155C23.0428 46.0551 23.7356 46.8739 24.4493 47.3433C25.0949 47.7679 25.7332 47.8976 26.4978 47.6188C33.159 44.2674 39.619 38.3639 41.7708 31.3232C41.7732 31.3153 41.7757 31.3074 41.7783 31.2996C42.4786 29.196 42.5551 27.8583 42.3493 26.9661C42.1556 26.1259 41.683 25.5592 40.9435 25.047C40.3573 24.6409 39.6842 24.3178 38.8947 23.9388C38.6062 23.8003 38.3021 23.6543 37.981 23.4941C36.8401 22.9248 35.5865 22.2159 34.4976 21.1091C32.4612 19.1544 32.2217 16.35 32.8879 13.635C33.5575 10.9062 35.1761 8.0624 37.1846 5.70311C39.1879 3.34987 41.6664 1.37666 44.1374 0.495026C45.3811 0.0512924 46.6674 -0.131149 47.9035 0.101311C49.1075 0.327736 50.2017 0.937027 51.1082 1.96295C51.8762 2.44978 52.8355 3.35169 53.8335 4.50506C54.9187 5.75911 56.1098 7.38061 57.2298 9.26517C59.4636 13.0239 61.4587 17.9041 61.7048 23.0645L60.7059 23.1121L61.6993 23.2269C59.293 44.0435 42.6398 62.2306 23.5408 65.8805C23.5017 65.888 23.4623 65.8931 23.4226 65.8958ZM23.2239 63.9048C41.3669 60.4069 57.3597 43.0218 59.703 23.0788C59.4605 18.3787 57.628 13.85 55.5105 10.2869C54.4488 8.50043 53.3264 6.97544 52.3212 5.81379C51.2962 4.62931 50.45 3.88906 49.9519 3.60018C49.8518 3.5421 49.7625 3.46706 49.688 3.37843C49.0453 2.61361 48.3151 2.21379 47.5338 2.06686C46.7351 1.91664 45.8164 2.01947 44.8095 2.37872C42.7793 3.10308 40.5743 4.80676 38.7075 6.99956C36.8459 9.18632 35.4079 11.7577 34.8303 14.1116C34.2506 16.4739 34.5709 18.4138 35.8909 19.6743C35.8988 19.6818 35.9066 19.6895 35.9143 19.6974C36.7698 20.5699 37.7888 21.163 38.874 21.7045C39.1202 21.8274 39.3773 21.9507 39.6391 22.0762L39.6395 22.0764L39.6396 22.0764C40.4731 22.476 41.3538 22.8983 42.0824 23.4029C43.1008 24.1084 43.9614 25.0563 44.2982 26.5166C44.6224 27.9224 44.4282 29.6675 43.6798 31.9195C41.3019 39.6831 34.3007 45.945 27.3467 49.4306C27.317 49.4454 27.2867 49.4588 27.2558 49.4706C25.782 50.0342 24.461 49.7448 23.3502 49.0142C22.2952 48.3203 21.4219 47.2282 20.6819 46.1409C20.2297 45.4767 19.7759 44.7319 19.3531 44.0381L19.3531 44.038C19.0984 43.62 18.8549 43.2204 18.6299 42.8682C18.0073 41.8935 17.5006 41.2367 17.0639 40.9153C15.6262 40.3657 13.7984 40.6466 11.7867 41.6708C9.7516 42.707 7.68852 44.429 5.97307 46.4208C4.25494 48.4157 2.94371 50.6134 2.34887 52.5578C1.74398 54.535 1.94489 55.9807 2.78628 56.8435C2.83688 56.8954 2.88169 56.9527 2.91992 57.0142C4.79588 60.0361 8.0279 61.8954 11.7875 62.9321C15.521 63.9616 19.6675 64.1475 23.2239 63.9048ZM29.8735 56.5156C29.4001 56.8001 29.247 57.4145 29.5314 57.8879C29.8159 58.3612 30.4303 58.5144 30.9037 58.2299C41.0205 52.1504 46.3044 46.4121 51.0528 39.7264C51.3726 39.2761 51.2668 38.6519 50.8165 38.3321C50.3662 38.0123 49.742 38.118 49.4222 38.5683C44.8102 45.062 39.7218 50.5975 29.8735 56.5156Z" fill="white"/>
</svg>
