<svg width="47" height="46" viewBox="0 0 47 46" fill="none" xmlns="http://www.w3.org/2000/svg">
<path fill-rule="evenodd" clip-rule="evenodd" d="M30.9376 6.71429L23.4814 0L16.0252 6.71429L12.2971 10.0529V10.0714V14.8753V19.3268V24.1306V34.2392L16.0252 30.9006V20.9033L23.4814 14.4302L30.9376 20.9033V26.0782L23.4814 19.3639V24.5387L34.6657 34.2577V29.4539V24.1677V19.3639V14.9124V10.1085V10.09L30.9376 6.71429ZM30.9376 15.9696L23.4814 9.25533L16.0252 15.9696V11.648L23.4814 5.17483L30.9376 11.648V15.9696ZM3.7281 17.7502L0 21.0888V25.8927V30.4369V35.2408V45.2566L3.7281 41.918V32.0506L7.43765 28.8603V38.6721L11.1658 35.3335V25.6701V20.4953V16.3035V11.1287L3.7281 17.7688V17.7502ZM7.43765 19.4937V23.7968L3.7281 27.1168V22.7025L7.43765 19.4937ZM47 21.0888V25.8927L39.5438 19.5123V23.8153L47 30.4555V30.9191V35.2779V40.5825V45.3864L35.8157 35.3706V35.3335V30.1958V25.6701V20.4953V16.3035V11.1287L47 21.0888ZM43.2719 37.0956V32.0506L39.5438 28.8418V33.6271L43.2719 37.0956Z" fill="url(#paint0_linear)"/>
<defs>
<linearGradient id="paint0_linear" x1="-0.60374" y1="28.5322" x2="47.2339" y2="28.21" gradientUnits="userSpaceOnUse">
<stop stop-color="#E60F00"/>
<stop offset="1" stop-color="#A00000"/>
</linearGradient>
</defs>
</svg>
