<svg viewBox="0 0 153 147" fill="none" xmlns="http://www.w3.org/2000/svg"><path fill-rule="evenodd" clip-rule="evenodd" d="M100.317 21.783L76.169 0 52.022 21.783 39.948 32.64v78.39l12.074-10.855v-32.39l24.147-20.994 24.148 20.995v16.767L76.169 62.77v16.767l36.222 31.492V32.603l-12.074-10.82zm0 29.988L76.169 29.988 52.022 51.77V37.762l24.147-20.995 24.148 20.995v14.009zm-88.243 5.732L0 68.359v78.354l12.074-10.855v-31.994l12.074-10.39v31.779l12.073-10.856v-78.39L12.075 57.539v-.036zM24.148 63.2v13.936L12.074 87.885V73.554L24.148 63.2zm128.19 5.159v15.585l-24.183-20.78V77.1l24.147 21.532V147l-36.221-32.46V36.078l36.257 32.28zm-12.074 51.878V103.9l-12.073-10.39v15.513l12.073 11.214z" fill="#fff"/></svg>