<svg width="142" height="16" viewBox="0 0 142 16" fill="none" xmlns="http://www.w3.org/2000/svg">
<path fill-rule="evenodd" clip-rule="evenodd" d="M136.156 15.16C139.459 15.16 141.756 13.0818 141.756 10.0411C141.756 7.19719 139.656 5.03147 136.878 5.05335C135.544 5.05335 134.275 5.5565 133.422 6.47529C133.597 4.26581 134.865 2.97513 136.878 2.97513C137.95 2.97513 139.131 3.21576 139.919 3.78454L141.756 1.79383C140.05 0.218762 138.3 0 136.681 0C132.634 0 130.228 2.93138 130.228 7.89723C130.228 12.4693 132.503 15.16 136.156 15.16ZM136.134 7.72221C137.534 7.72221 138.475 8.66288 138.475 10.0411C138.475 11.3974 137.534 12.3162 136.134 12.338C134.756 12.338 133.837 11.3974 133.837 10.0411C133.837 8.64101 134.778 7.72221 136.134 7.72221ZM71.5126 10.7848L68.9094 13.1256C70.5719 14.3944 72.7814 15.0944 75.0784 15.1163C78.6004 15.1163 80.9411 13.3443 80.9411 10.7192C80.9411 8.37847 79.3442 6.93466 75.9097 5.99399C73.7221 5.35959 73.1095 4.92207 73.1095 4.20016C73.1095 3.47826 73.8533 3.04073 75.0565 3.04073C76.4128 3.04073 77.616 3.30325 78.6223 4.09078L81.1599 2.05631C79.2348 0.328112 77.0472 0.0218506 74.9252 0.0218506C71.5126 0.0218506 69.5219 1.77193 69.5219 4.24391C69.5219 6.62839 71.0532 8.00658 74.2908 8.85974C76.4784 9.45039 77.266 9.93167 77.266 10.7192C77.266 11.5505 76.4128 12.0099 74.9471 12.0099C73.3502 12.0099 72.9564 11.7911 71.5126 10.7848ZM41.8269 0.196869V3.52202H37.5392V14.9194H33.9296V3.52202H29.6638V0.196869H41.8269ZM10.588 12.5349L11.463 14.9194H15.1819L9.5598 0.21875H5.68775L0 14.9194H3.78454L4.63771 12.5349H10.588ZM5.42523 9.9098L7.65659 3.87204L9.84418 9.9098H5.42523ZM22.5321 9.80042L25.3104 14.9194V14.9413H29.2262L25.9666 9.2754C27.7605 8.48786 28.7668 7.30656 28.7668 5.20647C28.7668 2.20946 26.5573 0.21875 23.1446 0.21875H16.9756V14.9194H20.5852V9.80042H22.5321ZM20.5195 3.172H22.7946C24.3259 3.172 25.1791 3.98141 25.1791 5.31585C25.1791 6.65028 24.3259 7.43782 22.7946 7.43782L20.5195 7.06592V3.172ZM47.4052 3.23763H53.5305V0.21875H43.7957V14.9194H47.4052V9.58166H52.9398V6.65028H47.4052V3.23763ZM64.6872 14.9194L63.8121 12.5349H57.8619L57.0087 14.9194H53.2242L58.9119 0.21875H62.784L68.4061 14.9194H64.6872ZM60.8589 3.87204L58.6275 9.9098H63.0465L60.8589 3.87204ZM92.8198 14.9194L91.9447 12.5349H85.9945L85.1413 14.9194H81.3568L87.0445 0.21875H90.9166L96.5387 14.9194H92.8198ZM88.9915 3.87204L86.7601 9.9098H91.1791L88.9915 3.87204ZM111.808 7.5472C111.808 3.10637 108.811 0.196869 104.217 0.196869H98.3324V14.8975H104.217C108.833 14.8975 111.808 11.988 111.808 7.5472ZM108.155 7.56907C108.155 10.1504 106.58 11.638 103.823 11.638V11.6599H101.942V3.50014H103.823C106.58 3.50014 108.155 4.98771 108.155 7.56907ZM124.452 6.05963C126.815 6.32214 128.456 8.05035 128.456 10.4348C128.456 13.2787 126.224 15.16 122.812 15.16C120.755 15.16 118.83 14.3725 117.54 12.9943L119.333 10.588C120.208 11.5286 121.434 12.0536 122.659 12.0536C124.059 12.0536 125.021 11.2661 125.021 10.1504C125.021 8.57537 123.271 8.0941 121.237 8.46599L120.405 6.6284L123.49 3.12825H118.349V0.196869H127.734V2.05633L124.452 6.05963Z" fill="white"/>
</svg>
