<svg width="57" height="50" viewBox="0 0 57 50" fill="none" xmlns="http://www.w3.org/2000/svg">
<path d="M57 0H1.52588e-05V50L57 0Z" fill="url(#paint0_linear)"/>
<path d="M20.9649 25H9.26955V22.6797L14.7891 16.7969C15.5469 15.9688 16.1055 15.2461 16.4649 14.6289C16.832 14.0117 17.0156 13.4258 17.0156 12.8711C17.0156 12.1133 16.8242 11.5195 16.4414 11.0898C16.0586 10.6523 15.5117 10.4336 14.8008 10.4336C14.0352 10.4336 13.4297 10.6992 12.9844 11.2305C12.5469 11.7539 12.3281 12.4453 12.3281 13.3047H8.9297C8.9297 12.2656 9.1758 11.3164 9.66798 10.457C10.168 9.59766 10.8711 8.92578 11.7774 8.44141C12.6836 7.94922 13.711 7.70312 14.8594 7.70312C16.6172 7.70312 17.9805 8.125 18.9492 8.96875C19.9258 9.8125 20.4141 11.0039 20.4141 12.543C20.4141 13.3867 20.1953 14.2461 19.7578 15.1211C19.3203 15.9961 18.5703 17.0156 17.5078 18.1797L13.6289 22.2695H20.9649V25Z" fill="white"/>
<defs>
<linearGradient id="paint0_linear" x1="1.51859e-05" y1="14.5" x2="44.5" y2="13.5" gradientUnits="userSpaceOnUse">
<stop stop-color="#E60F00"/>
<stop offset="1" stop-color="#A00000"/>
</linearGradient>
</defs>
</svg>
