<svg width="57" height="50" viewBox="0 0 57 50" fill="none" xmlns="http://www.w3.org/2000/svg">
<path d="M0.230774 0H57V50L0.230774 0Z" fill="url(#paint0_linear)"/>
<path d="M48.0256 25H36.3303V22.6797L41.8498 16.7969C42.6076 15.9688 43.1662 15.2461 43.5256 14.6289C43.8928 14.0117 44.0764 13.4258 44.0764 12.8711C44.0764 12.1133 43.8849 11.5195 43.5021 11.0898C43.1193 10.6523 42.5724 10.4336 41.8615 10.4336C41.0959 10.4336 40.4904 10.6992 40.0451 11.2305C39.6076 11.7539 39.3889 12.4453 39.3889 13.3047H35.9904C35.9904 12.2656 36.2365 11.3164 36.7287 10.457C37.2287 9.59766 37.9318 8.92578 38.8381 8.44141C39.7443 7.94922 40.7717 7.70312 41.9201 7.70312C43.6779 7.70312 45.0412 8.125 46.0099 8.96875C46.9865 9.8125 47.4748 11.0039 47.4748 12.543C47.4748 13.3867 47.256 14.2461 46.8185 15.1211C46.381 15.9961 45.631 17.0156 44.5685 18.1797L40.6896 22.2695H48.0256V25Z" fill="white"/>
<defs>
<linearGradient id="paint0_linear" x1="0.230774" y1="14.5" x2="44.5508" y2="13.5081" gradientUnits="userSpaceOnUse">
<stop stop-color="#E60F00"/>
<stop offset="1" stop-color="#A00000"/>
</linearGradient>
</defs>
</svg>
