<svg width="57" height="50" viewBox="0 0 57 50" fill="none" xmlns="http://www.w3.org/2000/svg">
<path d="M57 0H1.52588e-05V50L57 0Z" fill="url(#paint0_linear)"/>
<path d="M12.7149 14.9688H14.5195C15.3789 14.9688 16.0156 14.7539 16.4297 14.3242C16.8438 13.8945 17.0508 13.3242 17.0508 12.6133C17.0508 11.9258 16.8438 11.3906 16.4297 11.0078C16.0235 10.625 15.461 10.4336 14.7422 10.4336C14.0938 10.4336 13.5508 10.6133 13.1133 10.9727C12.6758 11.3242 12.457 11.7852 12.457 12.3555H9.07033C9.07033 11.4648 9.30861 10.668 9.78517 9.96484C10.2695 9.25391 10.9414 8.69922 11.8008 8.30078C12.668 7.90234 13.6211 7.70312 14.6602 7.70312C16.4649 7.70312 17.8789 8.13672 18.9024 9.00391C19.9258 9.86328 20.4375 11.0508 20.4375 12.5664C20.4375 13.3477 20.1992 14.0664 19.7227 14.7227C19.2461 15.3789 18.6211 15.8828 17.8477 16.2344C18.8086 16.5781 19.5235 17.0938 19.9922 17.7812C20.4688 18.4688 20.707 19.2812 20.707 20.2188C20.707 21.7344 20.1524 22.9492 19.043 23.8633C17.9414 24.7773 16.4805 25.2344 14.6602 25.2344C12.957 25.2344 11.5625 24.7852 10.4766 23.8867C9.39845 22.9883 8.85939 21.8008 8.85939 20.3242H12.2461C12.2461 20.9648 12.4844 21.4883 12.961 21.8945C13.4453 22.3008 14.0391 22.5039 14.7422 22.5039C15.5469 22.5039 16.1758 22.293 16.6289 21.8711C17.0899 21.4414 17.3203 20.875 17.3203 20.1719C17.3203 18.4688 16.3828 17.6172 14.5078 17.6172H12.7149V14.9688Z" fill="white"/>
<defs>
<linearGradient id="paint0_linear" x1="1.51859e-05" y1="14.5" x2="44.5" y2="13.5" gradientUnits="userSpaceOnUse">
<stop stop-color="#E60F00"/>
<stop offset="1" stop-color="#A00000"/>
</linearGradient>
</defs>
</svg>
