<svg width="57" height="50" viewBox="0 0 57 50" fill="none" xmlns="http://www.w3.org/2000/svg">
<path d="M0.230774 0H57V50L0.230774 0Z" fill="url(#paint0_linear)"/>
<path d="M39.7756 14.9688H41.5803C42.4396 14.9688 43.0764 14.7539 43.4904 14.3242C43.9045 13.8945 44.1115 13.3242 44.1115 12.6133C44.1115 11.9258 43.9045 11.3906 43.4904 11.0078C43.0842 10.625 42.5217 10.4336 41.8029 10.4336C41.1545 10.4336 40.6115 10.6133 40.174 10.9727C39.7365 11.3242 39.5178 11.7852 39.5178 12.3555H36.131C36.131 11.4648 36.3693 10.668 36.8459 9.96484C37.3303 9.25391 38.0021 8.69922 38.8615 8.30078C39.7287 7.90234 40.6818 7.70312 41.7209 7.70312C43.5256 7.70312 44.9396 8.13672 45.9631 9.00391C46.9865 9.86328 47.4982 11.0508 47.4982 12.5664C47.4982 13.3477 47.2599 14.0664 46.7834 14.7227C46.3068 15.3789 45.6818 15.8828 44.9084 16.2344C45.8693 16.5781 46.5842 17.0938 47.0529 17.7812C47.5295 18.4688 47.7678 19.2812 47.7678 20.2188C47.7678 21.7344 47.2131 22.9492 46.1037 23.8633C45.0021 24.7773 43.5412 25.2344 41.7209 25.2344C40.0178 25.2344 38.6232 24.7852 37.5373 23.8867C36.4592 22.9883 35.9201 21.8008 35.9201 20.3242H39.3068C39.3068 20.9648 39.5451 21.4883 40.0217 21.8945C40.506 22.3008 41.0998 22.5039 41.8029 22.5039C42.6076 22.5039 43.2365 22.293 43.6896 21.8711C44.1506 21.4414 44.381 20.875 44.381 20.1719C44.381 18.4688 43.4435 17.6172 41.5685 17.6172H39.7756V14.9688Z" fill="white"/>
<defs>
<linearGradient id="paint0_linear" x1="0.230774" y1="14.5" x2="44.5508" y2="13.5081" gradientUnits="userSpaceOnUse">
<stop stop-color="#E60F00"/>
<stop offset="1" stop-color="#A00000"/>
</linearGradient>
</defs>
</svg>
