<svg width="153" height="147" viewBox="0 0 153 147" fill="none" xmlns="http://www.w3.org/2000/svg">
<path fill-rule="evenodd" clip-rule="evenodd" d="M100.317 21.7831L76.1692 0L52.0215 21.7831L39.9476 32.6388V32.7105V48.2954V62.698V78.283V111.029L52.0215 100.174V67.7855L76.1692 46.7906L100.317 67.7855V84.5528L76.1692 62.7697V79.5369L112.391 111.029V95.4443V78.283V62.698V48.2954V32.6746V32.603L100.317 21.7831ZM100.317 51.7707L76.1692 29.9876L52.0215 51.7707V37.7621L76.1692 16.7673L100.317 37.7621V51.7707ZM12.0739 57.503L0 68.3588V83.9437V98.6688V114.254V146.713L12.0739 135.858V103.864L24.1477 93.4738V125.253L36.2215 114.397V83.0839V66.3166V52.7738V36.0066L12.0739 57.5389V57.503ZM24.1477 63.1996V77.1365L12.0739 87.8847V73.5537L24.1477 63.1996ZM152.338 68.3588V83.9437L128.155 63.1638V77.1007L152.302 98.633V100.102V114.218V131.415V147L116.081 114.54V114.433V97.8089V83.1555V66.3883V52.8455V36.0782L152.338 68.3588ZM140.264 120.237V103.9L128.191 93.5096V109.023L140.264 120.237Z" fill="white"/>
</svg>
