<svg width="81" height="66" viewBox="0 0 81 66" fill="none" xmlns="http://www.w3.org/2000/svg">
<path fill-rule="evenodd" clip-rule="evenodd" d="M3.50002 8.33091C3.50002 6.80441 3.86958 5.49541 4.38882 4.61867C4.92759 3.70895 5.45764 3.50003 5.7494 3.50003H69.2456C69.5374 3.50003 70.0674 3.70895 70.6062 4.61867C71.1254 5.49541 71.495 6.80441 71.495 8.33091V25.292H62.2212C61.369 25.292 60.725 25.767 60.3493 26.2804C59.9728 26.7947 59.7857 27.4324 59.7857 28.0701V38.0565C59.7857 38.6942 59.9728 39.3318 60.3493 39.8462C60.725 40.3595 61.369 40.8346 62.2212 40.8346H71.495V57.7955C71.495 59.322 71.1254 60.631 70.6062 61.5077C70.0674 62.4174 69.5374 62.6263 69.2456 62.6263H5.7494C5.45764 62.6263 4.92759 62.4174 4.38882 61.5077C3.86958 60.631 3.50002 59.322 3.50002 57.7955V8.33091ZM74.495 40.8346V57.7955C74.495 59.7654 74.0252 61.6218 73.1875 63.0364C72.3692 64.418 71.0246 65.6263 69.2456 65.6263H5.7494C3.97043 65.6263 2.62579 64.418 1.80755 63.0364C0.969775 61.6218 0.500015 59.7654 0.500015 57.7955V8.33091C0.500015 6.36097 0.969775 4.50453 1.80755 3.08994C2.62579 1.70833 3.97043 0.500031 5.7494 0.500031H69.2456C71.0246 0.500031 72.3692 1.70834 73.1875 3.08994C74.0252 4.50453 74.495 6.36097 74.495 8.33091V25.292H78.0645C78.9167 25.292 79.5607 25.767 79.9364 26.2804C80.3129 26.7948 80.5 27.4324 80.5 28.0701V38.0565C80.5 38.6942 80.3129 39.3318 79.9364 39.8462C79.5607 40.3595 78.9167 40.8346 78.0645 40.8346H74.495ZM71.495 37.8346H62.7857V28.292H71.495V37.8346ZM74.495 28.292V37.8346H77.5V28.292H74.495Z" fill="white"/>
</svg>
